<?xml version="1.0" encoding="UTF-8" standalone="no"?>
<!DOCTYPE svg PUBLIC "-//W3C//DTD SVG 1.1//EN"
 "http://www.w3.org/Graphics/SVG/1.1/DTD/svg11.dtd">
<!-- Generated by graphviz version 13.1.0 (20250701.0955)
 -->
<!-- Title: mb85rcxx_basic_init Pages: 1 -->
<svg width="269pt" height="504pt"
 viewBox="0.00 0.00 269.00 504.00" xmlns="http://www.w3.org/2000/svg" xmlns:xlink="http://www.w3.org/1999/xlink">
<g id="graph0" class="graph" transform="scale(1 1) rotate(0) translate(4 500)">
<title>mb85rcxx_basic_init</title>
<!-- Node1 -->
<g id="Node000001" class="node">
<title>Node1</title>
<g id="a_Node000001"><a xlink:title="basic example init">
<polygon fill="#999999" stroke="#666666" points="105.25,-252 0,-252 0,-232 105.25,-232 105.25,-252"/>
<text xml:space="preserve" text-anchor="middle" x="52.62" y="-238.5" font-family="Helvetica,sans-Serif" font-size="10.00">mb85rcxx_basic_init</text>
</a>
</g>
</g>
<!-- Node2 -->
<g id="Node000002" class="node">
<title>Node2</title>
<g id="a_Node000002"><a xlink:href="group__mb85rcxx__base__driver.html#gae379c66cc3352af5313e649b09f2540e" target="_top" xlink:title="initialize the chip">
<polygon fill="white" stroke="#666666" points="239.38,-496 162.62,-496 162.62,-476 239.38,-476 239.38,-496"/>
<text xml:space="preserve" text-anchor="middle" x="201" y="-482.5" font-family="Helvetica,sans-Serif" font-size="10.00">mb85rcxx_init</text>
</a>
</g>
</g>
<!-- Node1&#45;&gt;Node2 -->
<g id="edge1_Node000001_Node000002" class="edge">
<title>Node1&#45;&gt;Node2</title>
<g id="a_edge1_Node000001_Node000002"><a xlink:title=" ">
<path fill="none" stroke="#63b8ff" d="M54.58,-252.46C58.36,-287.95 75.53,-405.02 141.25,-467 144.36,-469.93 147.92,-472.41 151.72,-474.51"/>
<polygon fill="#63b8ff" stroke="#63b8ff" points="150.26,-477.68 160.81,-478.59 153.13,-471.3 150.26,-477.68"/>
</a>
</g>
</g>
<!-- Node3 -->
<g id="Node000003" class="node">
<title>Node3</title>
<g id="a_Node000003"><a xlink:href="group__mb85rcxx__interface__driver.html#gaedbe90364e09b82711d4ca0e836cf55f" target="_top" xlink:title="interface print format data">
<polygon fill="white" stroke="#666666" points="251.75,-458 150.25,-458 150.25,-426 251.75,-426 251.75,-458"/>
<text xml:space="preserve" text-anchor="start" x="158.25" y="-444.5" font-family="Helvetica,sans-Serif" font-size="10.00">mb85rcxx_interface</text>
<text xml:space="preserve" text-anchor="middle" x="201" y="-432.5" font-family="Helvetica,sans-Serif" font-size="10.00">_debug_print</text>
</a>
</g>
</g>
<!-- Node1&#45;&gt;Node3 -->
<g id="edge2_Node000001_Node000003" class="edge">
<title>Node1&#45;&gt;Node3</title>
<g id="a_edge2_Node000001_Node000003"><a xlink:title=" ">
<path fill="none" stroke="#63b8ff" d="M56.06,-252.19C63.6,-281.68 89.26,-368.13 141.25,-417 142.01,-417.71 142.79,-418.41 143.6,-419.09"/>
<polygon fill="#63b8ff" stroke="#63b8ff" points="141.46,-421.86 151.64,-424.78 145.5,-416.15 141.46,-421.86"/>
</a>
</g>
</g>
<!-- Node4 -->
<g id="Node000004" class="node">
<title>Node4</title>
<g id="a_Node000004"><a xlink:href="group__mb85rcxx__interface__driver.html#ga3519380bca65f1c725dffd397b7981aa" target="_top" xlink:title="interface delay ms">
<polygon fill="white" stroke="#666666" points="251.75,-408 150.25,-408 150.25,-376 251.75,-376 251.75,-408"/>
<text xml:space="preserve" text-anchor="start" x="158.25" y="-394.5" font-family="Helvetica,sans-Serif" font-size="10.00">mb85rcxx_interface</text>
<text xml:space="preserve" text-anchor="middle" x="201" y="-382.5" font-family="Helvetica,sans-Serif" font-size="10.00">_delay_ms</text>
</a>
</g>
</g>
<!-- Node1&#45;&gt;Node4 -->
<g id="edge3_Node000001_Node000004" class="edge">
<title>Node1&#45;&gt;Node4</title>
<g id="a_edge3_Node000001_Node000004"><a xlink:title=" ">
<path fill="none" stroke="#63b8ff" d="M58.29,-252.19C69.45,-275.53 99.86,-333.47 141.25,-367 142.36,-367.9 143.52,-368.78 144.7,-369.63"/>
<polygon fill="#63b8ff" stroke="#63b8ff" points="142.64,-372.47 152.97,-374.81 146.36,-366.53 142.64,-372.47"/>
</a>
</g>
</g>
<!-- Node5 -->
<g id="Node000005" class="node">
<title>Node5</title>
<g id="a_Node000005"><a xlink:href="group__mb85rcxx__interface__driver.html#ga67c011524d679074e963a9c4b26395a4" target="_top" xlink:title="interface iic bus deinit">
<polygon fill="white" stroke="#666666" points="251.75,-358 150.25,-358 150.25,-326 251.75,-326 251.75,-358"/>
<text xml:space="preserve" text-anchor="start" x="158.25" y="-344.5" font-family="Helvetica,sans-Serif" font-size="10.00">mb85rcxx_interface</text>
<text xml:space="preserve" text-anchor="middle" x="201" y="-332.5" font-family="Helvetica,sans-Serif" font-size="10.00">_iic_deinit</text>
</a>
</g>
</g>
<!-- Node1&#45;&gt;Node5 -->
<g id="edge4_Node000001_Node000005" class="edge">
<title>Node1&#45;&gt;Node5</title>
<g id="a_edge4_Node000001_Node000005"><a xlink:title=" ">
<path fill="none" stroke="#63b8ff" d="M63.59,-252.36C79.06,-267.99 110.28,-297.79 141.25,-317 143.12,-318.16 145.06,-319.29 147.04,-320.39"/>
<polygon fill="#63b8ff" stroke="#63b8ff" points="145.34,-323.46 155.83,-324.92 148.54,-317.23 145.34,-323.46"/>
</a>
</g>
</g>
<!-- Node6 -->
<g id="Node000006" class="node">
<title>Node6</title>
<g id="a_Node000006"><a xlink:href="group__mb85rcxx__interface__driver.html#ga542c1162c47e870cfa43aa70b8050367" target="_top" xlink:title="interface iic bus init">
<polygon fill="white" stroke="#666666" points="251.75,-308 150.25,-308 150.25,-276 251.75,-276 251.75,-308"/>
<text xml:space="preserve" text-anchor="start" x="158.25" y="-294.5" font-family="Helvetica,sans-Serif" font-size="10.00">mb85rcxx_interface</text>
<text xml:space="preserve" text-anchor="middle" x="201" y="-282.5" font-family="Helvetica,sans-Serif" font-size="10.00">_iic_init</text>
</a>
</g>
</g>
<!-- Node1&#45;&gt;Node6 -->
<g id="edge5_Node000001_Node000006" class="edge">
<title>Node1&#45;&gt;Node6</title>
<g id="a_edge5_Node000001_Node000006"><a xlink:title=" ">
<path fill="none" stroke="#63b8ff" d="M84.31,-252.48C100.79,-258.11 121.67,-265.24 141.14,-271.9"/>
<polygon fill="#63b8ff" stroke="#63b8ff" points="139.75,-275.12 150.35,-275.04 142.02,-268.49 139.75,-275.12"/>
</a>
</g>
</g>
<!-- Node7 -->
<g id="Node000007" class="node">
<title>Node7</title>
<g id="a_Node000007"><a xlink:href="group__mb85rcxx__interface__driver.html#ga0ede5e6eef25b267ab2807748983137c" target="_top" xlink:title="interface iic bus read">
<polygon fill="white" stroke="#666666" points="251.75,-258 150.25,-258 150.25,-226 251.75,-226 251.75,-258"/>
<text xml:space="preserve" text-anchor="start" x="158.25" y="-244.5" font-family="Helvetica,sans-Serif" font-size="10.00">mb85rcxx_interface</text>
<text xml:space="preserve" text-anchor="middle" x="201" y="-232.5" font-family="Helvetica,sans-Serif" font-size="10.00">_iic_read</text>
</a>
</g>
</g>
<!-- Node1&#45;&gt;Node7 -->
<g id="edge6_Node000001_Node000007" class="edge">
<title>Node1&#45;&gt;Node7</title>
<g id="a_edge6_Node000001_Node000007"><a xlink:title=" ">
<path fill="none" stroke="#63b8ff" d="M105.64,-242C116.38,-242 127.78,-242 138.8,-242"/>
<polygon fill="#63b8ff" stroke="#63b8ff" points="138.6,-245.5 148.6,-242 138.6,-238.5 138.6,-245.5"/>
</a>
</g>
</g>
<!-- Node8 -->
<g id="Node000008" class="node">
<title>Node8</title>
<g id="a_Node000008"><a xlink:href="group__mb85rcxx__interface__driver.html#gae9419f503e923eb0b85596e3d8b72178" target="_top" xlink:title="interface iic bus read with 16 bits register address">
<polygon fill="white" stroke="#666666" points="253.62,-208 148.38,-208 148.38,-176 253.62,-176 253.62,-208"/>
<text xml:space="preserve" text-anchor="start" x="156.38" y="-194.5" font-family="Helvetica,sans-Serif" font-size="10.00">mb85rcxx_interface</text>
<text xml:space="preserve" text-anchor="middle" x="201" y="-182.5" font-family="Helvetica,sans-Serif" font-size="10.00">_iic_read_address16</text>
</a>
</g>
</g>
<!-- Node1&#45;&gt;Node8 -->
<g id="edge7_Node000001_Node000008" class="edge">
<title>Node1&#45;&gt;Node8</title>
<g id="a_edge7_Node000001_Node000008"><a xlink:title=" ">
<path fill="none" stroke="#63b8ff" d="M84.31,-231.52C100.79,-225.89 121.67,-218.76 141.14,-212.1"/>
<polygon fill="#63b8ff" stroke="#63b8ff" points="142.02,-215.51 150.35,-208.96 139.75,-208.88 142.02,-215.51"/>
</a>
</g>
</g>
<!-- Node9 -->
<g id="Node000009" class="node">
<title>Node9</title>
<g id="a_Node000009"><a xlink:href="group__mb85rcxx__interface__driver.html#gaa4207e61ee60b75a7dffcafc56d35ef8" target="_top" xlink:title="interface iic bus write">
<polygon fill="white" stroke="#666666" points="251.75,-158 150.25,-158 150.25,-126 251.75,-126 251.75,-158"/>
<text xml:space="preserve" text-anchor="start" x="158.25" y="-144.5" font-family="Helvetica,sans-Serif" font-size="10.00">mb85rcxx_interface</text>
<text xml:space="preserve" text-anchor="middle" x="201" y="-132.5" font-family="Helvetica,sans-Serif" font-size="10.00">_iic_write</text>
</a>
</g>
</g>
<!-- Node1&#45;&gt;Node9 -->
<g id="edge8_Node000001_Node000009" class="edge">
<title>Node1&#45;&gt;Node9</title>
<g id="a_edge8_Node000001_Node000009"><a xlink:title=" ">
<path fill="none" stroke="#63b8ff" d="M63.59,-231.64C79.06,-216.01 110.28,-186.21 141.25,-167 143.12,-165.84 145.06,-164.71 147.04,-163.61"/>
<polygon fill="#63b8ff" stroke="#63b8ff" points="148.54,-166.77 155.83,-159.08 145.34,-160.54 148.54,-166.77"/>
</a>
</g>
</g>
<!-- Node10 -->
<g id="Node000010" class="node">
<title>Node10</title>
<g id="a_Node000010"><a xlink:href="group__mb85rcxx__interface__driver.html#gabe06159a33ddf373d96b2b95bbb20842" target="_top" xlink:title="interface iic bus write with 16 bits register address">
<polygon fill="white" stroke="#666666" points="254.75,-108 147.25,-108 147.25,-76 254.75,-76 254.75,-108"/>
<text xml:space="preserve" text-anchor="start" x="155.25" y="-94.5" font-family="Helvetica,sans-Serif" font-size="10.00">mb85rcxx_interface</text>
<text xml:space="preserve" text-anchor="middle" x="201" y="-82.5" font-family="Helvetica,sans-Serif" font-size="10.00">_iic_write_address16</text>
</a>
</g>
</g>
<!-- Node1&#45;&gt;Node10 -->
<g id="edge9_Node000001_Node000010" class="edge">
<title>Node1&#45;&gt;Node10</title>
<g id="a_edge9_Node000001_Node000010"><a xlink:title=" ">
<path fill="none" stroke="#63b8ff" d="M58.29,-231.81C69.45,-208.47 99.86,-150.53 141.25,-117 142.36,-116.1 143.52,-115.22 144.7,-114.37"/>
<polygon fill="#63b8ff" stroke="#63b8ff" points="146.36,-117.47 152.97,-109.19 142.64,-111.53 146.36,-117.47"/>
</a>
</g>
</g>
<!-- Node11 -->
<g id="Node000011" class="node">
<title>Node11</title>
<g id="a_Node000011"><a xlink:href="group__mb85rcxx__base__driver.html#ga274eea9fcc6e09af255384b944889483" target="_top" xlink:title="set the chip address pin">
<polygon fill="white" stroke="#666666" points="260.75,-58 141.25,-58 141.25,-38 260.75,-38 260.75,-58"/>
<text xml:space="preserve" text-anchor="middle" x="201" y="-44.5" font-family="Helvetica,sans-Serif" font-size="10.00">mb85rcxx_set_addr_pin</text>
</a>
</g>
</g>
<!-- Node1&#45;&gt;Node11 -->
<g id="edge10_Node000001_Node000011" class="edge">
<title>Node1&#45;&gt;Node11</title>
<g id="a_edge10_Node000001_Node000011"><a xlink:title=" ">
<path fill="none" stroke="#63b8ff" d="M55.85,-231.58C62.83,-201.47 87.12,-113.49 141.25,-67 142.37,-66.04 143.54,-65.12 144.75,-64.26"/>
<polygon fill="#63b8ff" stroke="#63b8ff" points="146.51,-67.28 153.39,-59.23 142.99,-61.23 146.51,-67.28"/>
</a>
</g>
</g>
<!-- Node12 -->
<g id="Node000012" class="node">
<title>Node12</title>
<g id="a_Node000012"><a xlink:href="group__mb85rcxx__base__driver.html#gad3363c4e61316694651a97b8e3196dd6" target="_top" xlink:title="set the chip type">
<polygon fill="white" stroke="#666666" points="251.75,-20 150.25,-20 150.25,0 251.75,0 251.75,-20"/>
<text xml:space="preserve" text-anchor="middle" x="201" y="-6.5" font-family="Helvetica,sans-Serif" font-size="10.00">mb85rcxx_set_type</text>
</a>
</g>
</g>
<!-- Node1&#45;&gt;Node12 -->
<g id="edge11_Node000001_Node000012" class="edge">
<title>Node1&#45;&gt;Node12</title>
<g id="a_edge11_Node000001_Node000012"><a xlink:title=" ">
<path fill="none" stroke="#63b8ff" d="M54.79,-231.85C59.23,-197.94 78.15,-87.39 141.25,-29 142.17,-28.14 143.14,-27.33 144.13,-26.55"/>
<polygon fill="#63b8ff" stroke="#63b8ff" points="145.95,-29.54 152.57,-21.27 142.24,-23.6 145.95,-29.54"/>
</a>
</g>
</g>
</g>
</svg>
